<?xml version="1.0" encoding="UTF-8"?>
<svg width="583px" height="388px" viewBox="0 0 583 388" version="1.1" xmlns="http://www.w3.org/2000/svg" xmlns:xlink="http://www.w3.org/1999/xlink">
    <!-- Generator: Sketch 53.2 (72643) - https://sketchapp.com -->
    <title>Group</title>
    <desc>Created with Sketch.</desc>
    <g id="Page-1" stroke="none" stroke-width="1" fill="none" fill-rule="evenodd">
        <g id="Desktop-HD" transform="translate(-610.000000, -130.000000)">
            <g id="Group" transform="translate(610.000000, 130.000000)">
                <g id="undraw_accept_request_vdsd">
                    <circle id="Oval" stroke="#2E3B40" cx="448" cy="41" r="19"></circle>
                    <path d="M486.285732,5.29875735 L481.660817,0.726294826 C481.202984,0.265949554 480.577173,0.00450617949 479.922439,5.77045832e-05 C479.267706,-0.00439077032 478.638282,0.248524128 478.174026,0.702604435 L449.141714,29.0177466 L436.865316,16.8486499 C436.409438,16.3937707 435.78846,16.1356934 435.139062,16.1312222 C434.489664,16.1267511 433.865073,16.3762525 433.402765,16.8248099 L428.729522,21.3734324 C427.766354,22.3164567 427.755538,23.8466012 428.705282,24.8027045 L447.349957,43.2825191 C448.308803,44.2297923 449.864608,44.2404263 450.836748,43.3063516 L486.261515,8.72802944 C486.729565,8.27774844 486.995393,7.66227686 486.999941,7.01835472 C487.004488,6.37443258 486.747378,5.75538891 486.285732,5.29875735 Z" id="Path" fill="#ADCE45" fill-rule="nonzero"></path>
                    <rect id="Rectangle" fill="#EBEFF2" fill-rule="nonzero" x="0" y="31" width="344" height="39" rx="19.5"></rect>
                    <rect id="Rectangle" fill="#EBEFF2" fill-rule="nonzero" x="0" y="99" width="344" height="39" rx="19.5"></rect>
                    <rect id="Rectangle" fill="#EBEFF2" fill-rule="nonzero" x="1" y="167" width="344" height="39" rx="19.5"></rect>
                    <rect id="Rectangle" fill="#EBEFF2" fill-rule="nonzero" x="1" y="235" width="344" height="39" rx="19.5"></rect>
                    <rect id="Rectangle" stroke="#2E3B40" x="11" y="21" width="344" height="39" rx="19.5"></rect>
                    <rect id="Rectangle" stroke="#2E3B40" x="11" y="89" width="344" height="39" rx="19.5"></rect>
                    <rect id="Rectangle" stroke="#2E3B40" x="12" y="157" width="344" height="39" rx="19.5"></rect>
                    <rect id="Rectangle" stroke="#2E3B40" x="12" y="225" width="344" height="39" rx="19.5"></rect>
                    <circle id="Oval" stroke="#2E3B40" cx="448" cy="109" r="19"></circle>
                    <circle id="Oval" stroke="#2E3B40" cx="448" cy="177" r="19"></circle>
                    <circle id="Oval" stroke="#2E3B40" cx="448" cy="245" r="19"></circle>
                    <path d="M486.285732,74.2987546 L481.660817,69.7262917 C481.202983,69.2659483 480.577173,69.0045062 479.922439,69.0000577 C479.267706,68.9956092 478.638283,69.2485229 478.174026,69.7026013 L449.141714,98.0177455 L436.865316,85.8486479 C436.409438,85.3937688 435.78846,85.1356914 435.139062,85.1312202 C434.489664,85.1267491 433.865073,85.3762506 433.402765,85.8248079 L428.729522,90.3734308 C427.766354,91.3164551 427.755538,92.8465997 428.705282,93.8027031 L447.349957,112.282519 C448.308803,113.229792 449.864608,113.240426 450.836748,112.306352 L486.261515,77.7280269 C486.729565,77.2777459 486.995393,76.6622743 486.999941,76.0183521 C487.004488,75.3744299 486.747378,74.7553862 486.285732,74.2987546 Z" id="Path" fill="#ADCE45" fill-rule="nonzero"></path>
                    <path d="M486.285751,211.298759 L481.660834,206.726292 C481.203001,206.265949 480.57719,206.004506 479.922456,206.000058 C479.267723,205.995609 478.638299,206.248523 478.174043,206.702602 L449.141721,235.01777 L436.865319,222.848662 C436.409441,222.393782 435.788463,222.135705 435.139065,222.131234 C434.489666,222.126763 433.865075,222.376264 433.402767,222.824822 L428.729522,227.373449 C427.766354,228.316474 427.755538,229.84662 428.705282,230.802724 L447.349964,249.282518 C448.308809,250.22979 449.864612,250.240427 450.836755,249.306358 L486.261534,214.727997 C486.729572,214.277717 486.995393,213.662253 486.999941,213.018339 C487.004488,212.374426 486.747385,211.755389 486.285751,211.298759 Z" id="Path" fill="#ADCE45" fill-rule="nonzero"></path>
                </g>
                <g id="undraw_completed_ngx6" transform="translate(505.000000, 167.000000)" fill-rule="nonzero">
                    <path d="M23.6427187,204 C23.6427187,204 18.4803188,205.546544 15.8991189,208.639629 C15.8991189,208.639629 11.2529557,210.701683 8.41363746,210.186169 C5.57431926,209.670654 0.41191516,214.825793 4.54183758,216.372337 C8.67176001,217.918881 33.9675183,222.042991 34.4837592,220.754206 C35,219.465421 35,206.319814 35,206.319814 L23.6427187,204 Z" id="Path" fill="#88C9CE"></path>
                    <path d="M64.4858652,202 C64.4858652,202 59.6847641,204.265842 57.6793018,207.552822 C57.6793018,207.552822 53.4724404,210.214364 50.5991847,210.192078 C47.725929,210.169792 43.5393807,215.78639 47.8543479,216.558586 C52.169315,217.330782 77.6876339,217.094188 77.9745951,215.814508 C78.2615563,214.534828 76.022814,202.328492 76.022814,202.328492 L64.4858652,202 Z" id="Path" fill="#88C9CE"></path>
                    <circle id="Oval" fill="#FFB9B9" cx="31.5" cy="17.5" r="11.5"></circle>
                    <path d="M41.0141144,20 C41.0141144,20 42.3021614,28.2258098 44.6206393,29.1935535 C46.2337237,29.9392777 47.7116307,30.9190325 49,32.0967808 L42.5597691,35 L29.9369321,34.2741902 C29.9369321,34.2741902 30.9673672,28.9516076 29.1641005,26.2903183 C27.3608338,23.629029 41.0141144,20 41.0141144,20 Z" id="Path" fill="#FFB9B9"></path>
                    <path d="M65.3539826,60 C65.3539826,60 71.3075217,74.912088 65.3539826,89.3186806 C59.4004435,103.725273 56.8119435,106 56.8119435,106 L55,87.0439581 L57.083487,85.19834 C57.083487,85.19834 58.3451403,79.4473575 57.3196941,76.0423594 C56.2942478,72.6373613 57.8473435,62.021977 57.8473435,62.021977 L65.3539826,60 Z" id="Path" fill="#FFB9B9"></path>
                    <path d="M21.6802414,93.4625044 C21.6802414,93.4625044 14.2910693,110.341567 15.0554654,118.525355 C15.8198615,126.709143 21.6802414,161.234498 21.6802414,161.234498 C21.6802414,161.234498 20.9158453,205.733857 23.2090462,205.733857 C25.5022471,205.733857 36.4585939,209.825749 36.4585939,207.012574 C36.4585939,204.199399 38.7517864,136.683147 38.7517864,136.683147 C38.7517864,136.683147 51.7465369,166.349377 53.0205318,168.651065 C54.2945267,170.952752 62.4480948,207.01257 65.2508819,207.01257 C68.053669,207.01257 76.7168402,204.455137 75.9524441,202.664932 C75.188048,200.874728 66.5248684,160.978756 61.6836861,150.749023 C56.8425038,140.519289 57.8617014,101.902042 57.8617014,101.902042 L49.7081501,84 L21.6802414,93.4625044 Z" id="Path" fill="#2F2E41"></path>
                    <path d="M29.776105,11.6969215 C29.776105,11.6969215 22.6627814,11.1976239 22.1546682,9.45008424 C21.6465551,7.70254459 20.6303834,6.20465583 21.1384797,6.20465583 C21.6465761,6.20465583 21.9006221,4.95641381 21.9006221,4.95641381 C21.9006221,4.95641381 22.4087185,4.70676706 22.6627646,4.95641381 C22.9168106,5.20606056 23.1708609,3.20887829 23.1708609,3.20887829 C23.1708609,3.20887829 23.424907,2.45993391 23.6789573,2.95923154 C23.9330075,3.45852917 23.9330033,3.20887829 24.1870536,2.45993391 C24.4411039,1.71098952 25.7113468,1.21168777 25.7113468,1.21168777 C25.7113468,1.21168777 30.5382558,1.46133452 31.3003982,0.462743383 C32.0625407,-0.535847754 40.7001659,0.213092504 42.4785011,1.46133452 C44.2568362,2.70957653 52.1323148,7.20325109 50.8620761,10.9479771 C49.5918373,14.6927032 45.0189786,22.9310997 45.0189786,24.1793417 C45.0189786,25.4275837 43.2406477,25.1779369 42.7325471,23.9296949 C42.2244466,22.6814529 38.1596884,21.18356 38.1596884,20.4346239 C38.1596884,19.6856877 35.873257,12.695525 34.6030266,13.1948185 C33.3327962,13.694112 31.808503,17.6884931 31.3004066,16.9395487 C30.7923103,16.1906043 29.776105,11.6969215 29.776105,11.6969215 Z" id="Path" fill="#3F3D56"></path>
                    <path d="M64,46.9302326 C64,46.9302326 53.4699998,31.5813925 50.3880484,30.8139516 C47.306097,30.0465106 40.3717074,28 40.3717074,28 C40.3717074,28 33.4373179,29.0232532 31.382702,30.0465106 C29.3280861,31.069768 21.6231928,32.8604622 21.3663611,35.9302302 C21.1095293,38.9999982 23.4209982,68.4186045 22.1368479,71.232556 C20.8526976,74.0465076 16.4866086,100.906979 18.5412457,100.39535 C20.5958828,99.8837214 19.054905,93.2325735 28.0439274,92.9767444 C37.0329498,92.7209152 41.9127065,87.3488371 45.2514854,93.7441853 C48.5902643,100.139534 58.092946,105 58.092946,105 C58.3317898,102.937621 58.6746628,100.888519 59.1202645,98.860464 C59.8907513,95.2790757 57.0656317,86.5813961 57.0656317,86.5813961 C57.0656317,86.5813961 57.3224592,66.3720939 58.3497777,64.0697668 C59.3770963,61.7674397 64,46.9302326 64,46.9302326 Z" id="Path" fill="#88C9CE"></path>
                    <path d="M60.329273,46 L64.1492154,46.5205488 C64.1492154,46.5205488 63.89455,51.7260285 64.913203,53.2876707 C65.931856,54.8493129 67.7144966,62.917809 66.6958394,63.1780856 C65.6771822,63.4383621 56.5093265,65 56.5093265,65 L56,53.0273941 L60.329273,46 Z" id="Path" fill="#88C9CE"></path>
                    <path d="M18.5369041,56 C18.5369041,56 15.9478473,72.4337152 14.6533189,74.4563255 C13.3587906,76.4789357 6.88614443,104.795496 6.88614443,104.795496 C6.88614443,104.795496 -3.75753637,119.249546 1.42057712,118.996722 C6.59869061,118.743897 12.0642622,105.806803 12.0642622,105.806803 C12.0642622,105.806803 28.1164149,77.2374182 28.1164149,74.2035049 C28.1164149,71.1695916 32,56 32,56 L18.5369041,56 Z" id="Path" fill="#FFB9B9"></path>
                    <path d="M26.3469834,33 L21.7640365,34.7777745 C21.7640365,34.7777745 15.9080539,55.6031732 17.1810937,57.3809519 C18.4541336,59.1587306 33.7306122,56.619048 33.9852227,55.8571398 C34.2398332,55.0952316 31.1845325,33 26.3469834,33 Z" id="Path" fill="#88C9CE"></path>
                </g>
            </g>
        </g>
    </g>
</svg>